<svg xmlns="http://www.w3.org/2000/svg" width="128" height="128" viewBox="0 0 128 128">
  <g id="Group_37394" data-name="Group 37394" transform="translate(-15275 -295)">
    <rect id="Rectangle_14417" data-name="Rectangle 14417" width="128" height="128" rx="25" transform="translate(15275 295)"/>
    <g id="Group_37393" data-name="Group 37393" transform="translate(-162.271 28.638)">
      <path id="Path_30978" data-name="Path 30978" d="M56.31,0a4.507,4.507,0,1,0,3.181,1.32A4.5,4.5,0,0,0,56.31,0Z" transform="translate(15443.216 288)" fill="#fff"/>
      <path id="Path_30979" data-name="Path 30979" d="M54.648,118.162a6.988,6.988,0,1,0,4.934,2.047A6.982,6.982,0,0,0,54.648,118.162Z" transform="translate(15444.878 240.598)" fill="#fff"/>
      <path id="Path_30980" data-name="Path 30980" d="M54.89,87.264a6.629,6.629,0,1,0,4.68,1.942A6.622,6.622,0,0,0,54.89,87.264Z" transform="translate(15444.637 252.993)" fill="#fff"/>
      <path id="Path_30981" data-name="Path 30981" d="M30.52,74.113a5.6,5.6,0,1,0,3.95,1.64A5.591,5.591,0,0,0,30.52,74.113Z" transform="translate(15454.001 258.269)" fill="#fff"/>
      <path id="Path_30982" data-name="Path 30982" d="M30.26,104.99a5.339,5.339,0,1,0,3.767,1.565A5.332,5.332,0,0,0,30.26,104.99Z" transform="translate(15454.001 245.882)" fill="#fff"/>
      <path id="Path_30983" data-name="Path 30983" d="M30.264,44.1a5.339,5.339,0,1,0,3.766,1.564A5.33,5.33,0,0,0,30.264,44.1Z" transform="translate(15453.997 270.309)" fill="#fff"/>
      <path id="Path_30984" data-name="Path 30984" d="M30.8,15.109A4.531,4.531,0,1,0,34,16.436,4.526,4.526,0,0,0,30.8,15.109Z" transform="translate(15453.459 281.939)" fill="#fff"/>
      <path id="Path_30985" data-name="Path 30985" d="M4.525,31.1a4.531,4.531,0,1,0,3.2,1.327A4.526,4.526,0,0,0,4.525,31.1Z" transform="translate(15464 275.522)" fill="#fff"/>
      <path id="Path_30986" data-name="Path 30986" d="M4.525,60.545a4.531,4.531,0,1,0,3.2,1.326A4.526,4.526,0,0,0,4.525,60.545Z" transform="translate(15464 263.712)" fill="#fff"/>
      <path id="Path_30987" data-name="Path 30987" d="M4.525,92.344a4.531,4.531,0,1,0,3.2,1.326A4.525,4.525,0,0,0,4.525,92.344Z" transform="translate(15464 250.956)" fill="#fff"/>
      <path id="Path_30988" data-name="Path 30988" d="M54.655,56.457A6.982,6.982,0,1,0,59.583,58.5,6.973,6.973,0,0,0,54.655,56.457Z" transform="translate(15444.872 265.352)" fill="#fff"/>
      <path id="Path_30989" data-name="Path 30989" d="M55.535,29.9a5.667,5.667,0,1,0,4,1.66A5.66,5.66,0,0,0,55.535,29.9Z" transform="translate(15443.992 276.005)" fill="#fff"/>
      <path id="Path_30990" data-name="Path 30990" d="M81.867,101.244a6.988,6.988,0,1,0,4.933,2.047A6.981,6.981,0,0,0,81.867,101.244Z" transform="translate(15433.959 247.385)" fill="#fff"/>
      <path id="Path_30991" data-name="Path 30991" d="M82.108,72.393a6.629,6.629,0,1,0,4.679,1.941A6.621,6.621,0,0,0,82.108,72.393Z" transform="translate(15433.718 258.959)" fill="#fff"/>
      <path id="Path_30992" data-name="Path 30992" d="M81.873,41.426A6.982,6.982,0,1,0,86.8,43.471,6.974,6.974,0,0,0,81.873,41.426Z" transform="translate(15433.954 271.382)" fill="#fff"/>
      <path id="Path_30993" data-name="Path 30993" d="M108.145,86.354A6.988,6.988,0,1,0,113.08,88.4,6.981,6.981,0,0,0,108.145,86.354Z" transform="translate(15423.417 253.358)" fill="#fff"/>
      <path id="Path_30994" data-name="Path 30994" d="M108.386,57.5a6.629,6.629,0,1,0,4.679,1.941A6.623,6.623,0,0,0,108.386,57.5Z" transform="translate(15423.177 264.933)" fill="#fff"/>
      <path id="Path_30995" data-name="Path 30995" d="M108.386,27.607a6.629,6.629,0,1,0,4.679,1.942A6.623,6.623,0,0,0,108.386,27.607Z" transform="translate(15423.177 276.925)" fill="#fff"/>
      <path id="Path_30996" data-name="Path 30996" d="M82.755,12.979a5.666,5.666,0,1,0,4,1.659A5.66,5.66,0,0,0,82.755,12.979Z" transform="translate(15433.072 282.793)" fill="#fff"/>
    </g>
  </g>
</svg>
